<svg xmlns="http://www.w3.org/2000/svg" width="19" height="19" viewBox="0 0 19 19"><defs><clipPath id="rav0a"><path fill="#fff" d="M.647 18.5V.5h17.706v18zm13.074-5.498a7.219 7.219 0 0 0 1.78-4.753c0-4-3.254-7.249-7.25-7.249C4.25 1 1 4.253 1 8.249c0 3.995 3.254 7.248 7.25 7.248 1.817 0 3.48-.67 4.754-1.779l4.133 4.131a.497.497 0 0 0 .716 0 .51.51 0 0 0 0-.716zM2.014 8.249a6.238 6.238 0 0 1 6.232-6.231 6.238 6.238 0 0 1 6.233 6.23c0 3.435-2.794 6.235-6.233 6.235A6.242 6.242 0 0 1 2.014 8.25z"/></clipPath></defs><g><g><path fill="#959595" d="M17.853 17.133a.51.51 0 0 1-.358.867.512.512 0 0 1-.358-.15l-4.133-4.132a7.222 7.222 0 0 1-4.754 1.78c-3.996 0-7.25-3.254-7.25-7.25C1 4.254 4.25 1 8.25 1c3.997 0 7.25 3.25 7.25 7.249 0 1.816-.67 3.479-1.78 4.753zm-9.607-2.65c3.439 0 6.233-2.8 6.233-6.234a6.238 6.238 0 0 0-6.233-6.231 6.238 6.238 0 0 0-6.232 6.23 6.242 6.242 0 0 0 6.232 6.235z"/><path fill="none" stroke="#959595" stroke-miterlimit="50" d="M17.853 17.133a.51.51 0 0 1-.358.867.512.512 0 0 1-.358-.15l-4.133-4.132a7.222 7.222 0 0 1-4.754 1.78c-3.996 0-7.25-3.254-7.25-7.25C1 4.254 4.25 1 8.25 1c3.997 0 7.25 3.25 7.25 7.249 0 1.816-.67 3.479-1.78 4.753zm-9.607-2.65c3.439 0 6.233-2.8 6.233-6.234a6.238 6.238 0 0 0-6.233-6.231 6.238 6.238 0 0 0-6.232 6.23 6.242 6.242 0 0 0 6.232 6.235z" clip-path="url(&quot;#rav0a&quot;)"/></g></g></svg>