<svg xmlns="http://www.w3.org/2000/svg" width="27" height="20" viewBox="0 0 27 20"><g><g><g><path fill="#3acd8f" d="M0 12.375h7.127a7.398 7.398 0 0 1-1.914 4.838 4.342 4.342 0 0 1-1.62.96c-.618.184-1.271.222-1.621.229H0v1.286h4.922v-.002a7.448 7.448 0 0 0 7.412-7.311h.041V0H0z"/></g><g><path fill="#3acd8f" d="M14.63 0v12.375h7.166c0 1.682-.562 3.23-1.504 4.475a4.24 4.24 0 0 1-1.553 1.256l-.013.007a4.436 4.436 0 0 1-.23.1c-.852.312-2.202.33-2.202.33H14.63v1.285h4.922a7.454 7.454 0 0 0 7.453-7.453V0H14.63z"/></g></g></g></svg>