<svg width="32" height="31" viewBox="0 0 32 31" fill="none" xmlns="http://www.w3.org/2000/svg">
<path d="M17.5449 0.973175L21.1541 8.38127C21.4051 8.89651 21.8904 9.25353 22.4518 9.33602L30.5226 10.524C31.9363 10.7323 32.5004 12.4917 31.4778 13.5012L25.6378 19.2676C25.2319 19.6685 25.0463 20.2467 25.1425 20.8126L26.5209 28.955C26.7625 30.3811 25.2846 31.4684 24.0204 30.7956L16.802 26.9515C16.3 26.6845 15.7 26.6845 15.198 26.9515L7.9796 30.7956C6.71535 31.469 5.2375 30.3811 5.47913 28.955L6.85753 20.8126C6.95365 20.2467 6.76809 19.6685 6.36224 19.2676L0.522249 13.5012C-0.500367 12.491 0.0636735 10.7316 1.47745 10.524L9.54824 9.33602C10.1096 9.25353 10.5949 8.89651 10.8459 8.38127L14.4551 0.973175C15.0865 -0.324392 16.9128 -0.324392 17.5449 0.973175Z" fill="#ED8A19"/>
</svg>
