<svg width="32" height="31" viewBox="0 0 32 31" fill="none" xmlns="http://www.w3.org/2000/svg">
<path d="M31.3055 14.0492C31.9354 13.4285 32.1578 12.5175 31.8861 11.6707C31.6137 10.8239 30.9044 10.2194 30.033 10.0911L22.2847 8.95276C21.9547 8.90417 21.6696 8.69489 21.5222 8.39232L18.0582 1.29322C17.6692 0.495648 16.8798 0 16 0C15.1209 0 14.3314 0.495648 13.9425 1.29322L10.4778 8.39232C10.3304 8.69489 10.0446 8.90417 9.71465 8.95276L1.9664 10.0918C1.09559 10.2194 0.386254 10.8239 0.113925 11.6707C-0.157763 12.5175 0.0645852 13.4285 0.694466 14.0492L6.3006 19.5745C6.53961 19.8104 6.64918 20.1499 6.59279 20.4816L5.26959 28.2843C5.12093 29.1609 5.47016 30.0298 6.18206 30.5533C6.89332 31.0774 7.81923 31.1455 8.59906 30.7302L15.5284 27.0462C15.8238 26.8894 16.1762 26.8894 16.4716 27.0462L23.4016 30.7302C23.7399 30.9103 24.1064 30.999 24.471 30.999C24.9446 30.999 25.4162 30.8494 25.8186 30.5533C26.5305 30.0298 26.8797 29.1609 26.731 28.2843L25.4072 20.4822C25.3508 20.1499 25.4604 19.811 25.6994 19.5752L31.3055 14.0492ZM24.1449 20.7012L25.4681 28.5033C25.5347 28.8959 25.3841 29.2711 25.065 29.5056C24.7453 29.7395 24.3474 29.768 23.9981 29.584L17.0682 25.8994C16.7343 25.7225 16.3665 25.6331 16 25.6331C15.6335 25.6331 15.2663 25.7225 14.9318 25.9L8.00314 29.584C7.65263 29.768 7.25471 29.7395 6.93561 29.5056C6.6165 29.2711 6.46656 28.8966 6.53256 28.5033L7.85576 20.7012C7.98327 19.9484 7.73657 19.1799 7.19576 18.6474L1.58899 13.1214C1.30641 12.8428 1.21029 12.4502 1.33268 12.0711C1.45442 11.6915 1.76007 11.431 2.15031 11.3733L9.89791 10.235C10.6457 10.1255 11.2922 9.6512 11.6261 8.96572L15.0907 1.86662C15.265 1.50897 15.6053 1.29581 15.9994 1.29581C16.3941 1.29581 16.7337 1.50897 16.9086 1.86662L20.3733 8.96572C20.7071 9.6512 21.353 10.1255 22.1008 10.235L29.8491 11.3733C30.2393 11.431 30.5449 11.6915 30.6667 12.0711C30.7884 12.4502 30.693 12.8428 30.4104 13.1214L24.8042 18.6467C24.2634 19.1799 24.0167 19.9477 24.1449 20.7012Z" fill="white" fill-opacity="0.5"/>
</svg>
