<svg xmlns="http://www.w3.org/2000/svg" width="40" height="40" viewBox="0 0 40 40"><g><g><path fill="#00ae65" d="M2.5 20c0 9.648 7.852 17.5 17.5 17.5S37.5 29.648 37.5 20 29.648 2.5 20 2.5 2.5 10.352 2.5 20zM40 20c0 11.045-8.955 20-20 20S0 31.045 0 20 8.955 0 20 0s20 8.955 20 20zm-8.85 6.687c.261.786-.002 1.912-.588 2.495l-1.602 1.602c-.286.285-1.123.464-1.15.464a18.901 18.901 0 0 1-13.528-5.53A18.922 18.922 0 0 1 8.75 12.144c0-.003.183-.816.469-1.1l1.601-1.6c.586-.59 1.712-.855 2.5-.591l.337.112c.786.264 1.612 1.133 1.829 1.933l.806 2.957c.217.803-.076 1.946-.662 2.532l-1.07 1.07a11.357 11.357 0 0 0 7.986 7.987l1.07-1.069c.588-.588 1.73-.881 2.531-.664l2.957.808c.8.22 1.67 1.04 1.934 1.826z"/></g></g></svg>