<svg xmlns="http://www.w3.org/2000/svg" width="29" height="28" viewBox="0 0 29 28"><g><g><g/><g><g><path fill="#fff" d="M26 13c0 6.627-5.373 12-12 12S2 19.627 2 13 7.373 1 14 1s12 5.373 12 12z"/></g><g><g/><g><path fill="#7f4da0" d="M16.294 9.498c.56.117.988.325 1.354.66.471.436.73.963.843 1.72.077.493.045.687-.133.848-.168.15-.477.155-.665.014-.136-.1-.179-.205-.21-.49-.037-.38-.105-.647-.221-.894-.25-.524-.69-.796-1.434-.884-.349-.042-.454-.08-.568-.211a.51.51 0 0 1 .16-.777c.107-.052.153-.058.391-.044.148.008.367.033.483.058zm-.605-2.094c1.724.247 3.058 1.03 3.932 2.3.492.715.798 1.555.903 2.456.037.33.037.932-.003 1.032a.638.638 0 0 1-.258.275c-.11.055-.346.05-.477-.017-.219-.108-.284-.28-.284-.746 0-.718-.19-1.475-.52-2.063A4.261 4.261 0 0 0 17.4 9.029c-.571-.333-1.414-.58-2.184-.64-.278-.023-.431-.078-.536-.197a.496.496 0 0 1-.043-.627c.148-.224.375-.26 1.053-.16zm-6.686-1.71c.1.033.253.11.34.166.54.35 2.042 2.227 2.533 3.164.281.535.375.932.287 1.226-.09.316-.241.483-.914 1.012-.27.213-.523.433-.562.491a1.273 1.273 0 0 0-.185.627c.003.463.31 1.303.713 1.95.312.501.871 1.145 1.425 1.639.65.582 1.223.979 1.87 1.292.833.405 1.34.507 1.713.338.093-.042.193-.097.224-.122.028-.025.247-.286.485-.574.46-.566.565-.657.88-.763.4-.133.81-.097 1.221.108.313.159.994.572 1.434.871.58.397 1.817 1.384 1.985 1.581.295.355.346.81.147 1.312-.21.53-1.027 1.522-1.598 1.947-.517.383-.883.53-1.366.552-.397.019-.562-.014-1.07-.22-3.986-1.605-7.168-4.001-9.695-7.293-1.32-1.72-2.325-3.503-3.012-5.353-.4-1.078-.42-1.547-.091-2.1.142-.232.746-.809 1.187-1.13.732-.533 1.07-.73 1.34-.786.184-.038.505-.008.71.064zm6.49-.3c.977.12 1.766.35 2.632.763.852.407 1.397.793 2.118 1.494.676.663 1.05 1.165 1.448 1.944.554 1.087.869 2.38.923 3.803.02.485.005.593-.108.732-.216.269-.69.224-.852-.078-.051-.1-.065-.186-.082-.574a9.832 9.832 0 0 0-.157-1.442c-.335-1.806-1.22-3.248-2.634-4.282-1.178-.866-2.396-1.287-3.992-1.379-.54-.03-.633-.05-.755-.141-.227-.175-.239-.585-.02-.777.134-.119.227-.136.69-.122.241.009.596.037.79.059zM.27 13.722c0 7.76 6.43 14.052 14.363 14.052s14.363-6.292 14.363-14.052S22.566-.33 14.633-.33C6.701-.33.27 5.961.27 13.722z"/></g></g></g></g></g></svg>