<svg xmlns="http://www.w3.org/2000/svg" width="28" height="28" viewBox="0 0 28 28"><g><g><g><path fill="#1e96c8" d="M13.998 27.276c7.654 0 13.858-6.07 13.858-13.558C27.856 6.23 21.652.16 13.998.16 6.345.16.14 6.23.14 13.718c0 7.488 6.205 13.558 13.858 13.558z"/></g><g><g><path fill="#fff" d="M19.882 8.398c.017-.01.376-.17.696.039a.706.706 0 0 1 .28.78c-.78 3.6-1.565 7.2-2.345 10.802a.794.794 0 0 1-.37.576.806.806 0 0 1-.898-.06c-1.851-1.362-3.703-2.723-5.554-4.09l6.458-5.68c.017-.028.09-.116.061-.171-.022-.044-.1-.06-.207-.044a.644.644 0 0 0-.28.104c-2.655 1.636-5.303 3.272-7.957 4.908l-3.607-1.07c-.152-.11-.365-.286-.348-.495.017-.192.224-.324.303-.373.65-.395 11.182-4.276 13.768-5.226z"/></g><g><path fill="#a9c9dd" d="M11.69 16.45l-.23 3.491c.084-.005.208-.016.348-.077a1.01 1.01 0 0 0 .342-.241l1.666-1.614z"/></g><g><path fill="#c8daea" d="M11.449 19.942a.47.47 0 0 1-.298-.088.446.446 0 0 1-.145-.247c-.062-.247-.556-1.844-1.246-4.04l7.956-4.907a.642.642 0 0 1 .14-.071c.101-.038.292-.082.342-.01.023.027.012.07.006.087 0 0-.011.055-.062.104-.067.066-2.771 2.443-6.458 5.681z"/></g></g></g></g></svg>