<svg xmlns="http://www.w3.org/2000/svg" width="28" height="27" viewBox="0 0 28 27"><g><g><g/><g><g><path fill="#25d366" d="M14.364.38C6.834.38.73 6.352.73 13.718c0 2.695.82 5.21 2.227 7.306l-1.756 5.818 6.178-1.674a13.78 13.78 0 0 0 6.985 1.883c7.53 0 13.634-5.972 13.634-13.338C27.998 6.352 21.893.38 14.364.38z"/></g><g><path fill="#fff" d="M21.852 17.377a.484.484 0 0 0-.286-.4c-1.1-.495-2.205-.989-3.305-1.483a.315.315 0 0 0-.364.077l-1.493 1.647a.415.415 0 0 1-.465.11 10.647 10.647 0 0 1-2.873-1.73 10.514 10.514 0 0 1-2.418-2.936c.207-.137.774-.55 1.027-1.312 0-.006.005-.011.005-.011a2.18 2.18 0 0 0-.05-1.45c-.298-.773-.892-2.272-1.122-2.502-.04-.039-.085-.077-.085-.077a1.002 1.002 0 0 0-.617-.241c-.078-.006-.162-.006-.252-.006a4.796 4.796 0 0 0-.657.017c-.477.065-.824.378-1.043.642-.264.313-.578.78-.786 1.394l-.05.16c-.23.779-.185 1.613.09 2.381.258.72.634 1.576 1.2 2.481.96 1.543 2.003 2.498 2.71 3.13.797.718 1.784 1.602 3.35 2.337 1.447.681 2.76.933 3.641 1.038.36.033 1.021.038 1.779-.242.347-.131.64-.29.875-.46.623-.434 1.06-1.088 1.172-1.823V18.1c.04-.28.034-.521.017-.724z"/></g></g></g></g></svg>