<svg xmlns="http://www.w3.org/2000/svg" width="45" height="46" viewBox="0 0 45 46"><g><g><g><path fill="#006fb0" d="M3.626 10.798a.726.726 0 0 1-.726-.726V7.17c0-.401.325-.726.726-.726h2.177V4.266c0-.402.325-.726.726-.726h2.903c.4 0 .726.324.726.726v2.177h2.177c.401 0 .726.325.726.726v2.903a.726.726 0 0 1-.726.726h-2.177v2.177a.726.726 0 0 1-.726.726H6.53a.726.726 0 0 1-.726-.726v-2.177zm.726-1.452h2.177c.4 0 .726.325.726.726v2.178h1.451v-2.178c0-.401.326-.726.726-.726h2.178V7.895H9.432a.726.726 0 0 1-.726-.726V4.992H7.255v2.177a.726.726 0 0 1-.726.726H4.352z"/></g><g><path fill="#006fb0" d="M15.246 13.701a.726.726 0 0 1-.726-.726v-8.71c0-.4.325-.725.726-.725H28.31c.401 0 .726.324.726.726v8.71a.726.726 0 0 1-.726.725zm.726-1.451h11.613V4.992H15.971z"/></g><g><path fill="#006fb0" d="M17.42 6.44h8.71v1.452h-8.71z"/></g><g><path fill="#006fb0" d="M17.42 9.34h8.71v1.452h-8.71z"/></g><g><path fill="#006fb0" d="M3.626 19.505a.726.726 0 0 1-.726-.726v-2.903c0-.402.325-.726.726-.726h24.677c.4 0 .726.324.726.726v2.903a.726.726 0 0 1-.726.726zm.726-1.452h23.225v-1.451H4.352z"/></g><g><path fill="#006fb0" d="M15.97 20.96h13.065v1.452H15.97z"/></g><g><path fill="#006fb0" d="M15.97 23.86h13.065v1.452H15.97z"/></g><g><path fill="#006fb0" d="M15.97 26.76h8.71v1.452h-8.71z"/></g><g><path fill="#006fb0" d="M15.97 29.67h8.71v1.451h-8.71z"/></g><g><path fill="#006fb0" d="M13.787 20.96c.4 0 .726.324.726.726v14.516a.726.726 0 0 1-.726.726H3.626a.726.726 0 0 1-.726-.726V21.686c0-.402.325-.726.726-.726zm-.726 1.452h-8.71v13.064h8.71z"/></g><g><path fill="#006fb0" d="M34.113 26.759c.4 0 .726.325.726.726v2.903a.726.726 0 0 1-.726.726h-.726v11.613a2.906 2.906 0 0 1-2.903 2.903 2.906 2.906 0 0 1-2.903-2.903v-1.452H.726A.726.726 0 0 1 0 40.55V1.356C0 .954.325.63.726.63H31.21c.4 0 .726.324.726.726v25.403zM27.58 39.824V36.92H15.968V35.47H27.58v-1.452H15.968v-1.452H27.58v-1.451h-.726a.726.726 0 0 1-.726-.726v-2.903c0-.401.325-.726.726-.726h3.629V2.082H1.452v37.742zm4.355 2.903v-7.258h-2.904v7.258c0 .8.651 1.451 1.452 1.451.8 0 1.451-.65 1.451-1.451zm0-11.613h-2.904v2.903h2.903zm1.451-2.903h-5.806v1.451h5.806z"/></g><g><path fill="#006fb0" d="M44.274 26.76c.4 0 .726.324.726.726v2.903a.726.726 0 0 1-.726.726h-.726v11.613a2.906 2.906 0 0 1-2.903 2.903 2.906 2.906 0 0 1-2.903-2.903V31.115h-.726a.726.726 0 0 1-.726-.726v-2.903c0-.402.325-.726.726-.726zm-2.178 15.968V35.47h-2.903v7.258c0 .8.651 1.451 1.452 1.451.8 0 1.451-.65 1.451-1.451zm0-11.613h-2.903v2.903h2.903zm1.452-2.903h-5.806v1.451h5.806z"/></g><g><path fill="#006fb0" d="M33.39 22.413a2.906 2.906 0 0 1 2.903-2.903 2.906 2.906 0 0 1 2.903 2.903 2.906 2.906 0 0 1-2.903 2.903 2.906 2.906 0 0 1-2.903-2.903zm1.452 0c0 .8.65 1.452 1.451 1.452.8 0 1.452-.651 1.452-1.452 0-.8-.651-1.451-1.452-1.451-.8 0-1.451.65-1.451 1.451z"/></g><g><path fill="#006fb0" d="M39.19 15.153a2.906 2.906 0 0 1 2.903-2.903 2.906 2.906 0 0 1 2.903 2.903 2.906 2.906 0 0 1-2.903 2.903 2.906 2.906 0 0 1-2.903-2.903zm1.452 0c0 .8.65 1.452 1.451 1.452.8 0 1.452-.651 1.452-1.452 0-.8-.651-1.451-1.452-1.451-.8 0-1.451.65-1.451 1.451z"/></g><g><path fill="#006fb0" d="M33.39 7.893a2.906 2.906 0 0 1 2.903-2.903 2.906 2.906 0 0 1 2.903 2.903 2.906 2.906 0 0 1-2.903 2.904 2.906 2.906 0 0 1-2.903-2.904zm1.452 0c0 .8.65 1.452 1.451 1.452.8 0 1.452-.651 1.452-1.452 0-.8-.651-1.451-1.452-1.451-.8 0-1.451.65-1.451 1.451z"/></g></g></g></svg>