<svg xmlns="http://www.w3.org/2000/svg" width="45" height="39" viewBox="0 0 45 39"><g><g><g/><g><g><g><path fill="#006fb0" d="M0 .31h33.088v22.5H0zm31.765 21.177V1.633H1.324v19.852z"/></g></g></g><g><g><g><path fill="#006fb0" d="M45.003 13.758v4.084c0 .912-.742 1.654-1.654 1.654a.331.331 0 0 0-.331.331v1.985a2.32 2.32 0 0 1-1.655 2.22v.759H40.04v-.76a2.32 2.32 0 0 1-1.655-2.219v-1.985a.331.331 0 0 0-.33-.33 1.656 1.656 0 0 1-1.655-1.655v-4.084l.411-.168a10.215 10.215 0 0 1 7.78 0zm-1.324 4.084v-3.184a8.888 8.888 0 0 0-5.956 0v3.184c0 .182.149.33.331.33.913 0 1.655.743 1.655 1.655v1.986a.994.994 0 0 0 1.985 0v-1.986c0-.912.742-1.654 1.654-1.654.183 0 .331-.149.331-.331z"/></g></g></g><g><g><g><path fill="#006fb0" d="M42.514 14.87H39.04v1.324h3.474z"/></g></g></g><g><g><g><path fill="#006fb0" d="M41.364 26.12H40.04v1.324h1.324z"/></g></g></g><g><g><g><path fill="#006fb0" d="M41.364 28.76H40.04v1.324h1.324z"/></g></g></g><g><g><g><path fill="#006fb0" d="M41.36 31.41v5.128c0 1.186-.965 2.15-2.15 2.15a2.153 2.153 0 0 1-2.151-2.15v-.536a1.948 1.948 0 0 0-1.946-1.946H33.42l.33 1.237v3.396H0v-3.396l2.8-10.501h1.832v-.662h1.324v.662h21.838v-.662h1.324v.662h1.832l2.117 7.94h2.046a3.273 3.273 0 0 1 3.27 3.27v.536a.828.828 0 0 0 1.654 0v-5.129zm-8.934 5.955v-1.323h-1.488v-1.324h1.289l-2.294-8.603H3.817l-2.294 8.603H29.78v1.324H1.325v1.323z"/></g></g></g><g><g><g><path fill="#006fb0" d="M29.238 12.07l-.178.415c-.036.084-.913 2.092-2.887 4.107-1.821 1.86-4.954 4.069-9.555 4.069h-.081c-5.369-.03-10.28-3.302-12.513-8.335l-.184-.415L13.25 2.5l.468.505c.783.847 1.732 1.277 2.823 1.277a3.949 3.949 0 0 0 2.779-1.134l.466-.457zm-1.589.288l-7.897-7.836a5.26 5.26 0 0 1-3.211 1.084c-1.23 0-2.358-.421-3.3-1.225L5.424 12.2c2.1 4.325 6.418 7.112 11.12 7.138h.076c3.31 0 6.194-1.223 8.575-3.637a14.496 14.496 0 0 0 2.454-3.342z"/></g></g></g><g><g><g><path fill="#006fb0" d="M3.974 18.84H2.65v1.324h1.324z"/></g></g></g><g><g><g><path fill="#006fb0" d="M6.614 18.84H5.29v1.324h1.324z"/></g></g></g><g><g><g><path fill="#006fb0" d="M27.794 18.84H26.47v1.324h1.324z"/></g></g></g><g><g><g><path fill="#006fb0" d="M30.444 18.84H29.12v1.324h1.324z"/></g></g></g><g><g><g><path fill="#006fb0" d="M6.62 2.96H2.65v1.324h3.97z"/></g></g></g><g><g><g><path fill="#006fb0" d="M9.264 2.96H7.94v1.324h1.324z"/></g></g></g><g><g><g><path fill="#006fb0" d="M5.297 5.6H2.65v1.324h2.647z"/></g></g></g><g><g><g><path fill="#006fb0" d="M3.974 8.25H2.65v1.324h1.324z"/></g></g></g><g><g><g><path fill="#006fb0" d="M30.44 2.96h-3.97v1.324h3.97z"/></g></g></g><g><g><g><path fill="#006fb0" d="M25.144 2.96H23.82v1.324h1.324z"/></g></g></g><g><g><g><path fill="#006fb0" d="M30.437 5.6H27.79v1.324h2.647z"/></g></g></g><g><g><g><path fill="#006fb0" d="M30.444 8.25H29.12v1.324h1.324z"/></g></g></g><g><g><g><path fill="#006fb0" d="M7.277 30.206a1.988 1.988 0 0 1 1.324 1.871c0 1.095-.891 1.985-1.986 1.985a1.988 1.988 0 0 1-1.985-1.985c0-.863.553-1.598 1.324-1.871v-.776h1.323zm0 1.871a.662.662 0 1 0-1.325.001.662.662 0 0 0 1.325-.001z"/></g></g></g><g><g><g><path fill="#006fb0" d="M17.537 30.206a1.988 1.988 0 0 1 1.324 1.871c0 1.095-.891 1.985-1.986 1.985a1.988 1.988 0 0 1-1.985-1.985c0-.863.553-1.598 1.324-1.871v-.776h1.323zm0 1.871a.662.662 0 1 0-1.325.001.662.662 0 0 0 1.325-.001z"/></g></g></g><g><g><g><path fill="#006fb0" d="M28.457 30.206a1.988 1.988 0 0 1 1.324 1.871c0 1.095-.891 1.985-1.986 1.985a1.988 1.988 0 0 1-1.985-1.985c0-.863.553-1.598 1.324-1.871v-.776h1.323zm0 1.871a.662.662 0 1 0-1.325.001.662.662 0 0 0 1.325-.001z"/></g></g></g><g><g><g><path fill="#006fb0" d="M6.954 26.78H5.63v1.324h1.324z"/></g></g></g><g><g><g><path fill="#006fb0" d="M9.594 26.78H8.27v1.324h1.324z"/></g></g></g><g><g><g><path fill="#006fb0" d="M12.244 26.78H10.92v1.324h1.324z"/></g></g></g><g><g><g><path fill="#006fb0" d="M14.894 26.78H13.57v1.324h1.324z"/></g></g></g><g><g><g><path fill="#006fb0" d="M17.534 26.78H16.21v1.324h1.324z"/></g></g></g><g><g><g><path fill="#006fb0" d="M20.184 26.78H18.86v1.324h1.324z"/></g></g></g><g><g><g><path fill="#006fb0" d="M22.834 26.78H21.51v1.324h1.324z"/></g></g></g><g><g><g><path fill="#006fb0" d="M25.474 26.78H24.15v1.324h1.324z"/></g></g></g><g><g><g><path fill="#006fb0" d="M28.124 26.78H26.8v1.324h1.324z"/></g></g></g></g></g></svg>