<svg xmlns="http://www.w3.org/2000/svg" width="45" height="45" viewBox="0 0 45 45"><g><g><g/><g><g><g><path fill="#006fb0" d="M34.688 0H2.811A2.813 2.813 0 0 0 0 2.813v22.5a2.813 2.813 0 0 0 2.813 2.812H15V26.25H2.812a.938.938 0 0 1-.937-.938v-22.5c0-.517.42-.937.938-.937h31.875c.517 0 .937.42.937.938v16.875H37.5V2.813A2.813 2.813 0 0 0 34.687 0z"/></g></g></g><g><g><g><path fill="#006fb0" d="M13.125 27.19H11.25v5.625h1.875z"/></g></g></g><g><g><g><path fill="#006fb0" d="M6.563 22.503a.938.938 0 0 1-.938-.938V19.69H3.75v1.875a2.813 2.813 0 0 0 2.813 2.812h1.874v-1.874z"/></g></g></g><g><g><g><path fill="#006fb0" d="M5.625 15.94H3.75v1.875h1.875z"/></g></g></g><g><g><g><path fill="#006fb0" d="M34.258 34.26a10.186 10.186 0 0 1-7.202 2.982c-5.625 0-10.186-4.56-10.186-10.186 0-5.625 4.56-10.186 10.186-10.186 2.702 0 5.293 1.073 7.203 2.984 3.978 3.978 3.977 10.428-.001 14.405zm1.106-7.2a8.311 8.311 0 0 0-2.43-5.877 8.25 8.25 0 0 0-5.878-2.437 8.31 8.31 0 1 0 8.308 8.314z"/></g></g></g><g><g><g><path fill="#006fb0" d="M44.72 40.777a.938.938 0 0 1 0 1.326l-2.615 2.616a.937.937 0 0 1-1.326.002l-5.885-5.885a.938.938 0 0 1 0-1.326l2.616-2.615a.938.938 0 0 1 1.326 0zm-1.988.666l-4.56-4.56-1.29 1.29 4.56 4.56z"/></g></g></g><g><g><g><path fill="#006fb0" d="M34.263 32.936l-1.326 1.326 3.27 3.27 1.325-1.326z"/></g></g></g><g><g><g><path fill="#006fb0" d="M27.19 20.63v1.875a4.693 4.693 0 0 1 4.687 4.687h1.875a6.57 6.57 0 0 0-6.562-6.562z"/></g></g></g><g><g><g><path fill="#006fb0" d="M16.88 31.88h-7.5v1.875h7.5z"/></g></g></g><g><g><g><path fill="#006fb0" d="M16.875 6.563a2.813 2.813 0 1 1-5.625 0 2.813 2.813 0 0 1 5.625 0zm-1.875 0a.938.938 0 1 0-1.875 0 .938.938 0 0 0 1.875 0z"/></g></g></g><g><g><g><path fill="#006fb0" d="M23.435 13.123a2.813 2.813 0 1 1-5.625 0 2.813 2.813 0 0 1 5.625 0zm-1.875 0a.938.938 0 1 0-1.875 0 .938.938 0 0 0 1.875 0z"/></g></g></g><g><g><g><path fill="#006fb0" d="M12.462 6.837l-4.687 4.688L9.1 12.85l4.687-4.688z"/></g></g></g><g><g><g><path fill="#006fb0" d="M15.659 6.84l-1.326 1.326 4.688 4.687 1.325-1.326z"/></g></g></g><g><g><g><path fill="#006fb0" d="M30.005 6.563a2.813 2.813 0 1 1-5.625 0 2.813 2.813 0 0 1 5.625 0zm-1.875 0a.938.938 0 1 0-1.875 0 .938.938 0 0 0 1.875 0z"/></g></g></g><g><g><g><path fill="#006fb0" d="M25.587 6.84l-4.688 4.688 1.326 1.326 4.687-4.688z"/></g></g></g></g></g></svg>