<svg xmlns="http://www.w3.org/2000/svg" width="45" height="45" viewBox="0 0 45 45"><g><g><g/><g><path fill="#006fb0" d="M3.52 27.42h1.406v1.406H3.52z"/></g><g><path fill="#006fb0" d="M6.33 27.42h1.406v1.406H6.33z"/></g><g><path fill="#006fb0" d="M9.14 27.42h1.406v1.406H9.14z"/></g><g><path fill="#006fb0" d="M36.56.7c4.264 0 7.734 3.47 7.734 7.734v35.86h-31.64a2.112 2.112 0 0 1-2.11-2.11c0-.542.21-1.032.548-1.406a2.096 2.096 0 0 1-.548-1.406c0-.542.21-1.032.548-1.406a2.096 2.096 0 0 1-.548-1.407c0-1.163.946-2.109 2.11-2.109h.702v-2.813H2.81A2.112 2.112 0 0 1 .7 29.528v-2.812c0-1.163.946-2.11 2.11-2.11h31.64v-2.889a4.9 4.9 0 0 1-3.516 1.483c-1.163 0-2.24-.4-3.088-1.082A3.519 3.519 0 0 1 25.31 23.2H.7v-7.031h8.975c.919 0 1.84-.218 2.664-.629.327-.164.67-.292 1.017-.406v-6.7C13.356 4.17 16.826.7 21.091.7zM14.761 14.816c.289-.035.58-.054.87-.054h1.943V8.434a3.52 3.52 0 0 1 3.516-3.515h11.25a3.52 3.52 0 0 1 3.515 3.515v34.453h2.813V8.434a6.335 6.335 0 0 0-6.328-6.328H21.09a6.335 6.335 0 0 0-6.329 6.328zm-2.109 25.259H34.45v-1.406H12.653a.703.703 0 0 0 0 1.406zm9.844-31.64c0-.795.275-1.52.721-2.11h-2.127c-1.163 0-2.11.946-2.11 2.11v6.328h2.906c.205 0 .407.01.61.027zm2.812 13.359a2.11 2.11 0 0 0 1.577-.709 4.913 4.913 0 0 1-.805-1.987l1.387-.234c.04.242.11.47.195.691l2.69-1.189a2.113 2.113 0 0 0 1.284-1.943v-1.59c-1.749-.336-3.433.617-4.019 2.273l-.165.469H25.8l-.61-.406c-.982-.654-2.124-1-3.303-1h-6.255a5.99 5.99 0 0 0-2.664.629 7.413 7.413 0 0 1-3.293.777H2.106v4.219H14.19a2.085 2.085 0 0 1-.13-.703c0-1.163.947-2.11 2.11-2.11h6.328v1.407h-6.328a.703.703 0 0 0 0 1.406zm9.061-4.28a3.478 3.478 0 0 0-1.326-2.06v.97a3.513 3.513 0 0 1-2.13 3.23l-2.47 1.093a3.504 3.504 0 0 0 5.22-.253 3.55 3.55 0 0 0 .706-2.98zm.08-2.683V8.434c0-1.163-.946-2.109-2.109-2.109h-6.328c-1.163 0-2.11.946-2.11 2.11v6.612a7.347 7.347 0 0 1 2.068.952l.254.17h.26c.961-2.04 3.177-3.167 5.458-2.711a4.868 4.868 0 0 1 2.508 1.373zM2.107 29.528c0 .388.315.703.703.703h17.413l2.812-1.406H34.45v-2.813H2.81a.703.703 0 0 0-.704.704zm12.656 4.922H34.45v-4.219H23.366l-2.813 1.406h-5.79zm-2.109 1.406a.703.703 0 0 0 0 1.407H34.45v-1.407zm0 7.032H34.45V41.48H12.653a.703.703 0 0 0 0 1.407zM42.888 8.434c0-3.412-2.716-6.193-6.099-6.316a7.724 7.724 0 0 1 3.286 6.316v34.454h2.813z"/></g></g></g></svg>