<svg xmlns="http://www.w3.org/2000/svg" width="41" height="45" viewBox="0 0 41 45"><g><g><g/><g><g><g><path fill="#006fb0" d="M16.105 7.295a.88.88 0 1 1 0 1.758.88.88 0 0 1 0-1.758z"/></g></g></g><g><g><g><path fill="#006fb0" d="M24.895 7.295a.88.88 0 1 1-.001 1.758.88.88 0 0 1 0-1.758z"/></g></g></g><g><g><g><path fill="#006fb0" d="M1.417 26.269C.663 25.137.285 23.724.285 22.5c0-1.845.82-3.56 2.227-4.723a5.942 5.942 0 0 1-.47-2.308c0-2.448 1.43-4.729 3.554-5.794a5.268 5.268 0 0 1 4-5.748C10.608 1.59 12.857 0 15.227 0c2.208 0 4.187 1.287 5.274 3.165C21.587 1.287 23.567 0 25.773 0c2.371 0 4.62 1.591 5.63 3.927a5.267 5.267 0 0 1 4.001 5.748c2.124 1.065 3.553 3.346 3.553 5.794 0 .79-.157 1.565-.469 2.309a6.105 6.105 0 0 1 2.227 4.722c0 1.23-.38 2.641-1.132 3.769a6.098 6.098 0 0 1 1.132 3.526 6.107 6.107 0 0 1-1.837 4.352c.603 3.647-2.305 7.337-6.073 7.337h-.08C31.474 43.637 29.154 45 26.651 45c-2.609 0-4.94-1.566-6.152-3.823C19.289 43.434 16.957 45 14.348 45c-2.504 0-4.823-1.362-6.072-3.517l-.08.001c-3.336 0-6.153-2.938-6.153-6.416 0-.296.026-.6.079-.92a6.107 6.107 0 0 1-1.837-4.353c0-1.262.398-2.49 1.132-3.526zm19.962-12.964a3.492 3.492 0 0 1 1.758-.473.879.879 0 0 1 0 1.758 1.76 1.76 0 0 0-1.758 1.758v16.714a7.015 7.015 0 0 1 5.273-2.388.879.879 0 0 1 0 1.758 5.28 5.28 0 0 0-5.273 5.273c0 3.002 2.415 5.537 5.273 5.537a5.288 5.288 0 0 0 4.773-3.065.88.88 0 0 1 .896-.504l.186.024c2.501.342 5.318-2.49 4.556-5.659a.879.879 0 0 1 .292-.881c1.018-.847 1.602-2.073 1.602-3.362 0-.797-.225-1.577-.645-2.262-1.054.864-2.365 1.383-3.75 1.383a.879.879 0 1 1 0-1.758c2.386 0 4.395-2.177 4.395-4.658a4.37 4.37 0 0 0-2.052-3.704.879.879 0 0 1-.295-1.176c.391-.689.59-1.413.59-2.151 0-2.372-1.935-4.658-4.395-4.658-2.341 0-4.395 2.176-4.395 4.658a.879.879 0 0 1-1.758 0c0-3.478 2.818-6.416 6.153-6.416.294 0 .587.024.876.069 0-.023.003-.046.003-.07a3.515 3.515 0 0 0-6.003-2.485.879.879 0 0 1-1.242-1.244 5.238 5.238 0 0 1 2.915-1.48c-.775-1.151-2.064-2.085-3.58-2.085-2.342 0-4.395 2.177-4.395 4.658zM6.438 28.916c-1.385 0-2.696-.519-3.75-1.382a4.325 4.325 0 0 0-.645 2.26c0 1.29.584 2.516 1.602 3.363.257.214.37.556.292.881a4.34 4.34 0 0 0-.136 1.03c0 2.728 2.467 4.933 4.692 4.63.062-.01.124-.018.186-.025a.878.878 0 0 1 .896.504 5.288 5.288 0 0 0 4.773 3.065c2.858 0 5.273-2.536 5.273-5.537a5.28 5.28 0 0 0-5.273-5.273.879.879 0 0 1 0-1.758c2.098 0 3.984.925 5.273 2.388V16.348a1.76 1.76 0 0 0-1.758-1.758.879.879 0 0 1 0-1.758c.64 0 1.24.173 1.758.473V6.416c0-2.481-2.053-4.658-4.394-4.658-1.517 0-2.806.934-3.581 2.084 1.099.17 2.113.68 2.915 1.481a.879.879 0 1 1-1.242 1.244 3.497 3.497 0 0 0-2.487-1.03 3.514 3.514 0 0 0-3.516 3.516l.003.069c.29-.045.582-.07.876-.07 3.335 0 6.153 2.939 6.153 6.417a.879.879 0 0 1-1.758 0c0-2.482-2.054-4.658-4.395-4.658-2.46 0-4.394 2.284-4.394 4.658 0 .738.198 1.462.589 2.151a.879.879 0 0 1-.295 1.176A4.37 4.37 0 0 0 2.043 22.5c0 2.49 2.016 4.658 4.395 4.658a.879.879 0 0 1 0 1.758z"/></g></g></g><g><g><g><path fill="#006fb0" d="M23.36 18.813a.879.879 0 0 1 1.242-.069c2.818 2.521 7.324.506 7.324-3.275a.879.879 0 1 1 1.758 0c0 3.05-2.233 5.59-5.15 6.07a2.641 2.641 0 0 0 2.513 1.84.879.879 0 1 1 0 1.758 4.401 4.401 0 0 1-4.316-3.569 6.142 6.142 0 0 1-3.301-1.514.879.879 0 0 1-.07-1.24z"/></g></g></g><g><g><g><path fill="#006fb0" d="M32.805 34.19a.879.879 0 1 1 0 1.757c-2.341 0-4.395 2.177-4.395 4.658a.879.879 0 1 1-1.758 0c0-3.477 2.818-6.416 6.153-6.416z"/></g></g></g><g><g><g><path fill="#006fb0" d="M25.773 27.158a7.894 7.894 0 0 1 6.882 4.009.879.879 0 0 1-1.53.867 6.139 6.139 0 0 0-5.352-3.118.879.879 0 1 1 0-1.758z"/></g></g></g><g><g><g><path fill="#006fb0" d="M9.953 23.379a2.641 2.641 0 0 0 2.514-1.84c-2.918-.48-5.15-3.02-5.15-6.07a.879.879 0 0 1 1.757 0 4.4 4.4 0 0 0 4.395 4.394 4.389 4.389 0 0 0 2.93-1.119.879.879 0 1 1 1.171 1.31 6.142 6.142 0 0 1-3.301 1.514 4.401 4.401 0 0 1-4.316 3.569.879.879 0 0 1 0-1.758z"/></g></g></g><g><g><g><path fill="#006fb0" d="M8.195 34.19c3.335 0 6.153 2.938 6.153 6.415a.879.879 0 0 1-1.758 0c0-2.481-2.054-4.658-4.395-4.658a.879.879 0 0 1 0-1.758z"/></g></g></g><g><g><g><path fill="#006fb0" d="M8.345 31.167a7.893 7.893 0 0 1 6.882-4.009.879.879 0 0 1 0 1.758 6.14 6.14 0 0 0-5.353 3.118.879.879 0 0 1-1.53-.867z"/></g></g></g></g></g></svg>